<?xml version="1.0" encoding="UTF-8" standalone="no"?>
<svg
   xmlns:dc="http://purl.org/dc/elements/1.1/"
   xmlns:cc="http://creativecommons.org/ns#"
   xmlns:rdf="http://www.w3.org/1999/02/22-rdf-syntax-ns#"
   xmlns:svg="http://www.w3.org/2000/svg"
   xmlns="http://www.w3.org/2000/svg"
   viewBox="0 0 95.046437 106.44204"
   version="1.1"
   id="svg1155"
   width="95.04644"
   height="106.44204">
  <metadata
     id="metadata1159">
    <rdf:RDF>
      <cc:Work
         rdf:about="">
        <dc:format>image/svg+xml</dc:format>
        <dc:type
           rdf:resource="http://purl.org/dc/dcmitype/StillImage" />
        <dc:title></dc:title>
      </cc:Work>
    </rdf:RDF>
  </metadata>
  <defs
     id="defs835">
    <style
       id="style833">
      .a {
        fill: #2d2d2d;
      }

      .b {
        isolation: isolate;
      }

      .c {
        fill: #f2b035;
      }

      .d {
        fill: #486273;
      }

      .e {
        fill: #f2f2f2;
      }

      .f {
        fill: #efefef;
      }
    </style>
  </defs>
  <text
     y="-46.084984"
     x="-1335.4977"
     style="font-style:normal;font-variant:normal;font-weight:normal;font-stretch:normal;font-size:8.66668034px;line-height:1.25;font-family:sans-serif;-inkscape-font-specification:'sans-serif, Normal';font-variant-ligatures:normal;font-variant-caps:normal;font-variant-numeric:normal;letter-spacing:0.45000201px;white-space:pre;shape-inside:url(#rect2806-98-7);fill:#f8f8f8;fill-opacity:1;stroke:none;stroke-width:1.43199003"
     id="text2780-5-2"
     xml:space="preserve" />
  <g
     transform="translate(-399.5643,-74.08908)"
     id="g67233">
    <g
       transform="translate(-676.10465,160.25079)"
       id="g39357">
      <g
         transform="translate(1082.9473,-275.24171)"
         id="g39349">
        <path
           style="fill:#486273"
           class="d"
           d="m 80,248.35 1.1,-18.09 A 7.09,7.09 0 0 1 79.49,230.44 7.44,7.44 0 0 1 77,230 l -1.1,18.09 a 7.09,7.09 0 0 1 1.61,-0.18 7.44,7.44 0 0 1 2.49,0.44 z"
           transform="translate(-4.72)"
           id="path39319" />
        <path
           style="fill:#486273"
           class="d"
           d="m 82.74,254.31 c 0,-0.1 0,-0.19 -0.07,-0.29 -0.07,-0.1 -0.12,-0.42 -0.19,-0.63 -0.07,-0.21 -0.07,-0.2 -0.11,-0.29 a 5.38,5.38 0 0 0 -0.39,-0.71 c -0.09,-0.14 -0.19,-0.27 -0.29,-0.4 l -0.22,-0.26 -0.41,-0.41 -0.1,-0.09 a 5.76,5.76 0 0 0 -1.14,-0.75 5.23,5.23 0 0 0 -2.33,-0.56 5.31,5.31 0 0 0 -1.74,0.31 v 0 a 5.64,5.64 0 0 0 -0.9,0.41 v 0 a 5.88,5.88 0 0 0 -0.81,0.57 5.33,5.33 0 1 0 8.79,4 6,6 0 0 0 -0.09,-0.9 z"
           transform="translate(-4.72)"
           id="path39321" />
        <path
           style="fill:#486273"
           class="d"
           d="m 75.9,227.06 a 5,5 0 0 0 1.21,0.82 5.09,5.09 0 0 0 4.07,0.25 v 0 a 5.36,5.36 0 0 0 0.73,-0.32 h 0.06 a 5.31,5.31 0 0 0 1.67,-1.42 2.09,2.09 0 0 0 0.14,-0.17 c 0.1,-0.13 0.17,-0.27 0.26,-0.4 l 0.23,-0.43 c 0.06,-0.13 0.11,-0.25 0.16,-0.38 0.05,-0.13 0.13,-0.39 0.18,-0.58 0.05,-0.19 0.06,-0.22 0.08,-0.33 a 5.15,5.15 0 0 0 0.1,-1 5.36,5.36 0 0 0 -5.35,-5.35 5,5 0 0 0 -1,0.1 l -0.31,0.07 a 5.76,5.76 0 0 0 -0.59,0.18 3.24,3.24 0 0 0 -0.33,0.13 5.63,5.63 0 0 0 -0.73,0.39 v 0 A 5.37,5.37 0 0 0 74.22,222 v 0 c 0,0.05 0,0.09 0,0.13 a 5.36,5.36 0 0 0 -0.1,1 5.26,5.26 0 0 0 1.78,3.93 z"
           transform="translate(-4.72)"
           id="path39323" />
        <path
           style="fill:#486273"
           class="d"
           d="m 74.8,217.41 -22.23,-15.6 a 7.48,7.48 0 0 1 -2.34,3.34 l 22.25,15.61 a 7.45,7.45 0 0 1 2.32,-3.35 z"
           transform="translate(-4.72)"
           id="path39325" />
        <path
           style="fill:#486273"
           class="d"
           d="m 17.42,251.42 a 5.42,5.42 0 0 0 -0.9,-0.6 v 0 a 6,6 0 0 0 -1,-0.42 v 0 a 5.35,5.35 0 0 0 -1.5,-0.24 5.25,5.25 0 0 0 -2.55,0.68 5.52,5.52 0 0 0 -1.52,1.24 l -0.15,0.19 a 4.25,4.25 0 0 0 -0.31,0.43 6.45,6.45 0 0 0 -0.31,0.58 c -0.06,0.11 -0.1,0.23 -0.15,0.34 a 5.53,5.53 0 0 0 -0.2,0.66 l -0.06,0.28 a 4.94,4.94 0 0 0 -0.1,0.95 5.35,5.35 0 1 0 8.76,-4.09 z"
           transform="translate(-4.72)"
           id="path39327" />
        <path
           style="fill:#486273"
           class="d"
           d="m 17.51,220.9 23.41,-15.83 a 7.38,7.38 0 0 1 -2.28,-3.38 l -23.41,15.83 a 7.33,7.33 0 0 1 2.28,3.38 z"
           transform="translate(-4.72)"
           id="path39329" />
        <path
           style="fill:#486273"
           class="d"
           d="m 10.52,230.5 a 7.69,7.69 0 0 1 -1.27,-0.11 l 2,18.32 a 7.37,7.37 0 0 1 2.78,-0.55 7.59,7.59 0 0 1 1.27,0.12 l -2,-18.33 a 7.19,7.19 0 0 1 -2.78,0.55 z"
           transform="translate(-4.72)"
           id="path39331" />
        <path
           style="fill:#486273"
           class="d"
           d="m 15.76,222.09 v 0 a 5.3,5.3 0 0 0 -2.29,-3.37 v 0 a 4.71,4.71 0 0 0 -0.76,-0.42 l -0.3,-0.12 a 5,5 0 0 0 -0.63,-0.19 l -0.3,-0.07 a 5,5 0 0 0 -1,-0.1 5.35,5.35 0 0 0 -5.34,5.35 5.45,5.45 0 0 0 0.1,1 c 0,0.11 0.06,0.22 0.08,0.33 a 5.58,5.58 0 0 0 0.18,0.58 l 0.18,0.4 0.22,0.41 a 4.17,4.17 0 0 0 0.29,0.44 1.81,1.81 0 0 0 0.18,0.21 5.26,5.26 0 0 0 2.63,1.72 v 0 a 5.35,5.35 0 0 0 1.5,0.24 5.49,5.49 0 0 0 3.68,-1.5 v 0 a 5.28,5.28 0 0 0 1.67,-3.72 v 0 c 0,0 0,-0.11 0,-0.16 a 5.39,5.39 0 0 0 -0.09,-1.03 z"
           transform="translate(-4.72)"
           id="path39333" />
        <path
           style="fill:#486273"
           class="d"
           d="m 45.63,229.25 a 9.64,9.64 0 0 1 2,0.22 v -23 a 7.05,7.05 0 0 1 -4.07,0 v 23 a 9.81,9.81 0 0 1 2.07,-0.22 z"
           transform="translate(-4.72)"
           id="path39335" />
        <path
           style="fill:#f2b035"
           class="c"
           d="m 52.84,241.64 c 0,-0.07 0,-0.13 0.07,-0.19 0.1,-0.3 0.19,-0.61 0.26,-0.92 v 0 A 7.69,7.69 0 0 0 52.6,235.7 v -0.06 a 8.52,8.52 0 0 0 -0.46,-0.84 v 0 a 7.7,7.7 0 0 0 -5.34,-3.44 h -0.14 a 7,7 0 0 0 -2,0 h -0.13 a 7.69,7.69 0 0 0 -5.37,3.47 L 39,235 c -0.15,0.25 -0.28,0.5 -0.41,0.76 v 0.07 a 7.61,7.61 0 0 0 -0.58,2 v 0 a 7.72,7.72 0 0 0 -0.1,1.18 7.45,7.45 0 0 0 0.18,1.65 v 0 a 7.11,7.11 0 0 0 0.27,0.93 c 0,0.05 0,0.09 0.05,0.13 a 7.7,7.7 0 0 0 14,0.83 c 0.21,-0.37 0.33,-0.64 0.43,-0.91 z"
           transform="translate(-4.72)"
           id="path39337" />
        <path
           style="fill:#486273"
           class="d"
           d="M 55.08,236.79 74,228 a 7.36,7.36 0 0 1 -1.76,-3.68 l -18.89,8.78 a 9.64,9.64 0 0 1 1.73,3.69 z"
           transform="translate(-4.72)"
           id="path39339" />
        <path
           style="fill:#486273"
           class="d"
           d="m 37.82,233.21 -20,-9 a 7.29,7.29 0 0 1 -1.67,3.72 l 20,9 a 9.64,9.64 0 0 1 1.67,-3.72 z"
           transform="translate(-4.72)"
           id="path39341" />
        <path
           style="fill:#486273"
           class="d"
           d="m 36.28,241.55 -17,8.88 a 7.39,7.39 0 0 1 1.9,3.61 l 17,-8.88 a 9.62,9.62 0 0 1 -1.9,-3.61 z"
           transform="translate(-4.72)"
           id="path39343" />
        <path
           style="fill:#486273"
           class="d"
           d="m 53.14,245.09 17.14,8.77 a 7.36,7.36 0 0 1 1.86,-3.62 L 55,241.46 a 9.62,9.62 0 0 1 -1.86,3.63 z"
           transform="translate(-4.72)"
           id="path39345" />
        <path
           style="fill:#486273"
           class="d"
           d="m 45.63,194.08 a 5.36,5.36 0 0 0 -5.35,5.35 5.49,5.49 0 0 0 0.11,1.08 5.33,5.33 0 0 0 2.29,3.37 5,5 0 0 0 0.91,0.49 5.26,5.26 0 0 0 4.07,0 5.06,5.06 0 0 0 0.83,-0.44 5.41,5.41 0 0 0 2.35,-3.33 5.67,5.67 0 0 0 0.13,-1.17 5.35,5.35 0 0 0 -5.34,-5.35 z"
           transform="translate(-4.72)"
           id="path39347" />
      </g>
      <rect
         ry="5.1588402"
         y="-10.460489"
         x="1081.9189"
         height="24.490818"
         width="82.54644"
         id="rect39351"
         style="fill:none;fill-opacity:1;stroke:#486273;stroke-width:2.5;stroke-linecap:round;stroke-linejoin:round;stroke-miterlimit:4;stroke-dasharray:none;stroke-opacity:1" />
      <g
         style="font-size:16px;line-height:1.25;font-family:'Encode Sans SC';-inkscape-font-specification:'Encode Sans SC, @wght=619,wdth=112.0';fill:#486273;stroke-width:0.75190198"
         id="text39355"
         aria-label="DataHub">
        <path
           id="path346"
           style="-inkscape-font-specification:'Encode Sans SC, @wght=644,wdth=112.0'"
           d="m 1090.0013,7.8089198 q -0.512,0 -1.08,-0.024 -0.56,-0.016 -1.152,-0.064 -0.584,-0.04 -1.168,-0.112 v -11.464 q 0.568,-0.12 1.232,-0.208 0.664,-0.096 1.352,-0.144 0.696,-0.048 1.336,-0.048 3.344,0 5.056,1.48 1.72,1.472 1.72,4.56 0,2.112 -0.808,3.44 -0.808,1.328 -2.432,1.96 -1.616,0.624 -4.056,0.624 z m 0.616,-1.96 q 1.416,0 2.344,-0.416 0.928,-0.424 1.376,-1.32 0.456,-0.896 0.456,-2.344 0,-1.42399998 -0.464,-2.31999998 -0.456,-0.90400002 -1.384,-1.32000002 -0.92,-0.424 -2.304,-0.424 -0.368,0 -0.792,0.04 -0.416,0.032 -0.808,0.096 v 7.928 q 0.368,0.04 0.744,0.064 0.376,0.016 0.832,0.016 z" />
        <path
           id="path348"
           style="-inkscape-font-specification:'Encode Sans SC, @wght=644,wdth=112.0'"
           d="m 1098.044,7.7049198 3.472,-9.52 h 3.512 l 3.48,9.52 h -2.384 l -2.984,-8.59999998 h 0.248 l -2.984,8.59999998 z m 2.6,-2.464 0.544,-1.736 h 4.168 l 0.528,1.736 z" />
        <path
           id="path350"
           style="-inkscape-font-specification:'Encode Sans SC, @wght=644,wdth=112.0'"
           d="M 1110.7296,7.7049198 V 0.03291982 h -3.36 V -1.8150802 h 9.144 v 1.84800002 h -3.36 V 7.7049198 Z" />
        <path
           id="path352"
           style="-inkscape-font-specification:'Encode Sans SC, @wght=644,wdth=112.0'"
           d="m 1115.3751,7.7049198 3.472,-9.52 h 3.512 l 3.48,9.52 h -2.384 l -2.984,-8.59999998 h 0.248 l -2.984,8.59999998 z m 2.6,-2.464 0.544,-1.736 h 4.168 l 0.528,1.736 z" />
        <path
           id="path354"
           style="-inkscape-font-specification:'Encode Sans SC, @wght=644,wdth=112.0'"
           d="m 1127.2391,7.7049198 v -11.84 h 2.44 v 4.72000002 h 5.544 V -4.1350802 h 2.448 v 11.84 h -2.448 v -5 h -5.544 v 5 z" />
        <path
           id="path356"
           style="-inkscape-font-specification:'Encode Sans SC, @wght=644,wdth=112.0'"
           d="m 1144.6231,7.8249198 q -1.592,0 -2.6,-0.48 -1.008,-0.488 -1.488,-1.424 -0.48,-0.944 -0.48,-2.336 v -5.4 h 2.424 v 5.576 q 0,1.136 0.528,1.664 0.536,0.528 1.616,0.528 1.088,0 1.616,-0.528 0.528,-0.528 0.528,-1.664 v -5.576 h 2.376 v 5.4 q 0,1.392 -0.472,2.336 -0.472,0.936 -1.472,1.424 -1,0.48 -2.576,0.48 z" />
        <path
           id="path358"
           style="-inkscape-font-specification:'Encode Sans SC, @wght=644,wdth=112.0'"
           d="m 1154.6631,7.8169198 q -0.488,0 -1.04,-0.024 -0.544,-0.016 -1.088,-0.064 -0.536,-0.048 -1,-0.104 v -9.192 q 0.496,-0.112 1.088,-0.192 0.6,-0.08 1.208,-0.128 0.616,-0.048 1.176,-0.048 2.384,0 3.44,0.68 1.064,0.68000002 1.064,2.00800002 0,0.51999998 -0.224,0.95999998 -0.216,0.432 -0.632,0.728 -0.408,0.296 -0.976,0.4 l 0.01,-0.088 q 0.616,0.088 1.088,0.368 0.472,0.272 0.736,0.744 0.272,0.464 0.272,1.144 0,0.88 -0.496,1.512 -0.488,0.624 -1.608,0.96 -1.12,0.336 -3.016,0.336 z m 0.512,-1.568 q 0.92,0 1.44,-0.152 0.52,-0.152 0.736,-0.448 0.216,-0.296 0.216,-0.736 0,-0.656 -0.44,-0.96 -0.44,-0.312 -1.472,-0.312 h -2.072 v -1.608 h 1.872 q 1.008,0 1.392,-0.312 0.392,-0.312 0.392,-0.87199998 0,-0.64 -0.448,-0.92 -0.44,-0.288 -1.52,-0.288 -0.36,0 -0.728,0.032 -0.368,0.024 -0.704,0.08 V 6.1769198 q 0.352,0.04 0.672,0.056 0.32,0.016 0.664,0.016 z" />
      </g>
    </g>
    <g
       id="g67146" />
  </g>
</svg>
