<?xml version="1.0" standalone="no"?>
<!DOCTYPE svg PUBLIC "-//W3C//DTD SVG 20010904//EN"
 "http://www.w3.org/TR/2001/REC-SVG-20010904/DTD/svg10.dtd">
<svg version="1.0" xmlns="http://www.w3.org/2000/svg"
 width="848.000000pt" height="848.000000pt" viewBox="0 0 848.000000 848.000000"
 preserveAspectRatio="xMidYMid meet">
<metadata>
Created by potrace 1.14, written by Peter Selinger 2001-2017
</metadata>
<g transform="translate(0.000000,848.000000) scale(0.100000,-0.100000)"
fill="#000000" stroke="none">
<path d="M4221 8073 c-30 -6 -73 -20 -95 -29 -79 -34 -174 -121 -197 -179 -7
-16 -17 -36 -23 -44 -5 -7 -11 -18 -12 -25 -2 -6 -8 -38 -14 -71 -37 -191 78
-393 265 -466 51 -20 57 -21 148 -24 74 -2 99 1 149 21 34 13 69 31 78 39 9 8
20 15 25 15 30 0 148 164 161 222 22 103 24 139 11 198 -3 14 -8 35 -11 46
-10 48 -61 131 -112 181 -96 96 -250 144 -373 116z"/>
<path d="M3619 7393 c-63 -42 -115 -80 -117 -85 -2 -4 -8 -8 -12 -8 -5 0 -75
-45 -156 -100 -81 -56 -157 -106 -168 -112 -12 -6 -23 -14 -26 -17 -11 -13
-101 -71 -110 -71 -6 0 -10 -4 -10 -9 0 -4 -28 -25 -62 -46 -35 -21 -65 -41
-68 -44 -3 -3 -52 -37 -110 -76 -58 -38 -107 -73 -110 -76 -3 -3 -12 -8 -20
-12 -16 -7 -638 -429 -657 -446 -7 -6 -14 -11 -17 -11 -3 0 -26 -14 -50 -32
l-45 -31 37 -42 c20 -23 45 -52 55 -65 25 -30 77 -131 77 -148 0 -9 6 -12 15
-8 18 7 344 226 363 243 7 7 17 13 22 13 5 0 15 6 22 13 7 7 45 32 83 57 39
24 72 47 75 50 4 5 178 123 264 180 13 8 43 28 67 44 24 16 46 33 47 37 2 5 8
9 13 9 8 0 183 115 224 147 6 5 91 62 190 128 99 66 182 123 185 126 3 3 39
28 80 55 41 26 77 52 78 56 2 5 8 8 12 8 18 0 125 82 122 93 -2 6 -12 17 -22
24 -37 26 -140 186 -140 218 0 8 -4 15 -8 15 -5 0 -60 -34 -123 -77z"/>
<path d="M4820 7398 c-35 -69 -53 -93 -112 -156 -44 -46 -43 -49 15 -83 10 -6
26 -17 35 -24 9 -8 91 -66 182 -129 91 -64 172 -120 180 -126 8 -6 89 -62 180
-126 91 -63 172 -120 180 -127 9 -7 38 -28 65 -47 28 -19 52 -38 53 -42 2 -4
10 -8 17 -8 8 0 20 -6 27 -13 16 -16 216 -158 257 -182 9 -5 18 -13 21 -16 3
-3 32 -24 65 -47 33 -23 97 -67 142 -99 45 -32 101 -71 125 -88 24 -16 73 -51
109 -77 37 -27 69 -48 72 -48 2 0 10 15 18 33 21 52 78 138 125 187 l43 44
-47 33 c-26 18 -55 39 -65 46 -11 6 -28 20 -39 30 -12 9 -25 17 -29 17 -4 0
-14 6 -21 13 -7 7 -58 44 -113 82 -55 38 -102 72 -105 75 -3 4 -20 15 -37 25
-18 11 -33 23 -33 27 0 4 -5 8 -11 8 -6 0 -38 20 -70 45 -33 25 -64 45 -69 45
-6 0 -10 5 -10 10 0 6 -7 10 -15 10 -8 0 -15 3 -15 8 0 4 -25 23 -55 42 -30
19 -55 38 -55 43 0 4 -4 7 -9 7 -5 0 -48 28 -96 63 -47 34 -97 69 -109 77 -13
8 -39 26 -58 40 -50 35 -148 103 -167 115 -9 6 -18 12 -21 15 -4 5 -89 65
-289 204 -23 17 -50 36 -60 41 -9 6 -18 12 -21 15 -8 9 -140 100 -145 100 -2
0 -18 -28 -35 -62z"/>
<path d="M4134 6178 l1 -913 35 5 c45 5 216 5 255 0 l30 -5 1 913 1 913 -41
-8 c-53 -10 -178 -10 -237 0 l-45 8 0 -913z"/>
<path d="M6926 6193 c-2 -2 -14 -6 -26 -8 -124 -24 -232 -109 -290 -230 -112
-234 1 -499 250 -588 102 -36 225 -25 331 28 62 32 149 120 175 177 10 24 22
46 27 49 5 3 8 9 7 13 -1 3 2 21 6 39 11 49 12 138 2 177 -5 19 -11 45 -13 56
-9 41 -58 116 -107 165 -49 49 -109 85 -181 109 -35 11 -173 21 -181 13z"/>
<path d="M1390 6175 c-153 -44 -262 -152 -301 -300 -60 -221 64 -439 297 -519
65 -22 197 -15 271 16 72 30 79 36 147 104 59 58 94 122 113 204 24 99 -13
274 -72 338 -46 50 -92 92 -115 104 -14 7 -27 16 -30 19 -3 4 -34 16 -70 26
-76 24 -177 27 -240 8z"/>
<path d="M2075 5642 c-10 -56 -44 -137 -85 -201 l-37 -57 46 -21 c25 -12 69
-31 96 -43 28 -13 100 -45 160 -73 61 -27 196 -87 300 -134 105 -47 215 -97
245 -111 30 -14 57 -26 60 -27 7 -2 55 -24 255 -115 97 -44 179 -80 181 -80 2
0 41 -18 86 -39 167 -79 165 -78 174 -23 2 15 8 36 13 47 36 82 67 144 83 164
10 13 18 27 18 31 0 3 -28 19 -62 35 -121 55 -184 84 -283 128 -55 25 -130 59
-168 76 -37 17 -70 31 -72 31 -3 0 -40 16 -82 36 -137 65 -297 137 -304 138
-16 3 -115 52 -121 61 -4 5 -8 7 -8 4 0 -6 -153 61 -392 170 -99 45 -96 45
-103 3z"/>
<path d="M6339 5637 c-36 -18 -102 -49 -145 -69 -43 -20 -110 -51 -149 -69
-38 -18 -72 -33 -75 -34 -3 -1 -36 -16 -75 -35 -38 -18 -104 -48 -145 -67 -41
-20 -104 -49 -140 -66 -36 -17 -67 -31 -70 -32 -5 -2 -106 -48 -200 -92 -30
-14 -62 -30 -70 -34 -8 -5 -25 -13 -38 -19 -78 -34 -306 -140 -311 -145 -2 -3
8 -23 23 -45 42 -63 96 -189 100 -235 2 -16 27 -8 147 49 63 29 140 65 171 80
32 14 93 42 135 63 43 20 80 38 83 38 9 3 203 92 335 155 44 21 121 57 170 80
50 23 108 50 131 61 22 10 46 19 52 19 7 0 12 5 12 10 0 6 6 10 13 10 6 0 50
19 97 41 92 45 122 57 130 55 3 0 13 6 21 14 14 13 14 17 -8 40 -31 32 -99
174 -107 223 -4 20 -10 37 -14 36 -4 0 -37 -15 -73 -32z"/>
<path d="M1681 5209 c-44 -18 -95 -24 -188 -24 l-92 1 5 -46 c6 -63 12 -115
20 -185 3 -33 8 -76 10 -95 2 -19 5 -53 8 -75 3 -22 8 -67 11 -100 3 -33 8
-73 10 -90 7 -49 17 -147 20 -191 2 -23 6 -57 9 -75 2 -19 7 -61 11 -94 3 -33
8 -78 10 -100 2 -22 7 -67 10 -100 4 -33 8 -71 10 -85 5 -34 18 -162 18 -180
0 -27 17 -41 37 -30 10 5 36 13 57 16 21 3 41 8 46 11 8 5 119 5 160 -1 l28
-3 -5 56 c-3 31 -8 74 -10 96 -3 22 -7 65 -10 95 -5 50 -11 103 -21 185 -4 35
-17 159 -21 195 -1 14 -3 25 -4 25 -1 0 -3 20 -5 45 -3 47 -13 144 -20 196 -2
16 -7 59 -10 95 -3 35 -8 78 -10 94 -10 76 -16 124 -19 170 -3 28 -8 77 -12
110 -4 33 -7 68 -8 78 0 19 -10 20 -45 6z"/>
<path d="M6799 5212 c-3 -19 -8 -78 -13 -173 -3 -59 -9 -140 -12 -180 -3 -41
-7 -105 -9 -144 -4 -73 -14 -253 -20 -340 -2 -27 -6 -102 -10 -165 -3 -63 -8
-140 -10 -170 -3 -30 -8 -101 -10 -158 l-5 -102 32 5 c59 11 152 8 213 -6 33
-7 64 -13 69 -14 11 0 14 16 21 140 8 141 13 223 21 350 3 61 8 133 9 160 12
193 15 250 20 325 7 103 11 177 20 339 l7 123 -23 -7 c-40 -13 -181 -8 -241 8
-32 8 -59 12 -59 9z"/>
<path d="M4215 5113 c-199 -24 -409 -185 -484 -373 -61 -153 -61 -334 0 -467
10 -24 19 -46 19 -49 0 -14 90 -131 127 -165 60 -57 145 -106 229 -135 157
-52 364 -31 496 53 21 12 40 23 42 23 23 0 186 183 186 208 0 5 7 15 15 22 9
7 13 15 11 17 -2 3 4 25 15 50 25 60 30 83 36 184 10 164 -53 332 -168 450
-52 53 -159 129 -189 135 -3 0 -17 6 -31 12 -73 30 -211 46 -304 35z"/>
<path d="M3505 4275 c-22 -12 -112 -59 -200 -105 -188 -98 -336 -174 -460
-240 -49 -26 -142 -74 -205 -107 -63 -33 -173 -91 -245 -129 -71 -37 -142 -74
-157 -81 -35 -18 -42 -30 -25 -40 41 -25 131 -199 136 -267 1 -5 7 -4 14 1 6
6 71 41 142 78 72 37 175 91 230 120 235 123 296 155 395 206 58 30 107 57
108 62 2 4 11 7 21 7 9 0 21 4 26 9 6 5 62 36 125 69 180 93 274 143 283 152
5 4 -7 29 -27 55 -20 25 -36 53 -36 61 0 8 -3 14 -8 14 -8 0 -55 102 -58 128
-4 27 -19 29 -59 7z"/>
<path d="M5039 4295 c-1 -3 -2 -8 -3 -12 -13 -58 -77 -186 -114 -229 -20 -22
-22 -29 -10 -39 7 -7 110 -62 228 -123 118 -60 313 -160 434 -221 120 -62 323
-166 452 -232 128 -65 235 -115 237 -111 5 8 18 59 17 67 -1 11 63 130 71 133
5 2 9 10 9 18 0 8 3 14 8 14 4 0 15 11 24 24 l18 24 -93 47 c-396 203 -566
290 -722 370 -549 283 -553 284 -556 270z"/>
<path d="M6794 3629 c-184 -24 -314 -136 -367 -316 -15 -50 -16 -154 -3 -211
12 -55 59 -136 106 -186 52 -55 157 -117 204 -119 14 -1 26 -4 26 -8 0 -7 147
-3 180 5 44 10 144 65 180 98 174 160 186 426 28 600 -89 98 -231 153 -354
137z"/>
<path d="M1707 3605 c-31 -6 -59 -9 -62 -7 -3 3 -5 0 -5 -6 0 -7 -7 -12 -15
-12 -14 0 -40 -12 -74 -35 -38 -26 -129 -124 -148 -160 -16 -33 -33 -83 -38
-115 0 -3 -3 -9 -6 -15 -3 -5 -5 -41 -3 -80 4 -119 49 -219 133 -298 89 -83
185 -118 315 -113 67 2 93 8 153 35 114 53 214 173 238 286 11 49 12 147 2
190 -36 163 -185 305 -347 330 -69 11 -89 11 -143 0z"/>
<path d="M1270 2539 c-206 -40 -374 -215 -405 -421 -9 -56 -10 -1244 -1 -1283
3 -17 8 -39 10 -50 2 -11 12 -40 22 -65 67 -171 224 -291 409 -316 60 -8 5833
-8 5889 0 206 29 383 195 426 399 13 64 18 1210 5 1307 -21 162 -132 315 -279
385 -39 18 -83 35 -98 37 -15 2 -30 7 -34 11 -10 10 -5891 6 -5944 -4z m5980
-220 c30 -14 69 -39 86 -55 37 -35 81 -115 89 -164 4 -19 7 -307 7 -640 0
-699 3 -665 -84 -761 -38 -41 -85 -71 -143 -89 -32 -11 -609 -13 -2965 -13
l-2925 1 -57 21 c-78 30 -149 101 -178 178 -22 58 -22 63 -22 668 0 649 0 661
49 738 34 55 68 83 138 118 l60 29 2945 -3 2945 -2 55 -26z"/>
<path d="M1577 1954 c-1 -1 -31 -4 -67 -8 -119 -11 -163 -16 -171 -22 -5 -3
-9 -210 -9 -460 0 -425 1 -454 18 -455 9 0 26 -3 37 -5 38 -9 318 -11 374 -2
68 10 221 57 221 69 0 4 10 11 23 15 29 9 103 86 126 133 17 32 36 90 47 146
5 22 5 179 1 210 -8 49 -30 126 -38 131 -5 3 -9 12 -9 19 0 35 -102 134 -172
168 -70 34 -181 57 -291 60 -48 2 -89 2 -90 1z m216 -174 c89 -33 119 -59 156
-133 40 -78 44 -222 10 -326 -24 -73 -97 -138 -174 -157 -53 -13 -253 -13
-257 -1 -2 7 -4 149 -4 317 l1 305 30 6 c48 9 203 2 238 -11z"/>
<path d="M4569 1920 c0 -14 -1 -225 -2 -470 l0 -445 96 -1 c65 -1 97 2 98 10
1 6 1 93 1 194 0 100 4 185 9 188 10 6 46 6 97 1 18 -2 35 0 38 4 2 4 19 3 38
-1 19 -4 37 -5 40 -3 5 5 49 5 166 0 l54 -2 1 -194 c0 -191 0 -194 22 -202 12
-4 24 -5 27 -1 2 4 36 6 74 6 l70 -2 0 472 1 471 -95 0 c-56 0 -95 -4 -96 -10
0 -5 -2 -89 -2 -185 l-2 -175 -221 -3 -222 -2 1 180 c1 99 -2 183 -6 187 -4 5
-48 8 -97 8 -88 0 -89 0 -90 -25z"/>
<path d="M2559 1762 c-25 -2 -40 -10 -47 -25 -8 -16 -176 -474 -247 -675 -2
-7 -4 -13 -3 -15 1 -1 -4 -11 -10 -23 -11 -20 -9 -21 85 -20 l96 1 18 55 c10
30 25 73 33 95 l14 40 161 1 161 0 17 -50 c9 -28 18 -55 19 -61 1 -5 9 -27 18
-49 16 -37 17 -38 61 -34 25 3 45 1 45 -3 0 -5 10 -5 23 -1 12 5 32 7 45 6 12
0 22 2 22 7 0 8 -75 220 -90 254 -5 11 -42 112 -83 225 -97 265 -95 260 -109
265 -16 6 -180 11 -229 7z m159 -274 c49 -144 50 -148 29 -149 -54 -3 -189 -1
-193 3 -3 4 45 158 63 198 3 8 7 18 8 23 2 4 4 9 5 12 1 3 3 8 5 13 14 52 19
62 25 55 4 -4 30 -74 58 -155z"/>
<path d="M3045 1760 l-60 -5 0 -60 c-1 -33 1 -65 2 -71 3 -7 48 -11 129 -11
68 0 127 -3 131 -6 3 -4 6 -140 7 -304 l1 -298 92 -2 c63 -1 93 2 96 10 2 7 3
144 3 305 l-1 292 25 1 c14 1 73 1 133 1 120 -1 110 -9 109 87 0 29 -3 55 -5
58 -7 6 -589 9 -662 3z"/>
<path d="M3899 1756 c-5 -6 -9 -14 -9 -19 0 -5 -6 -23 -14 -40 -14 -34 -106
-285 -110 -302 -1 -5 -12 -37 -24 -70 -25 -67 -29 -78 -30 -85 -1 -3 -15 -39
-32 -80 -17 -41 -31 -76 -31 -77 1 -6 -11 -40 -20 -55 -12 -23 11 -28 109 -25
l74 2 32 95 33 95 158 0 c167 0 162 1 181 -50 4 -11 16 -47 28 -80 l21 -60 93
-2 c50 -1 92 2 92 7 0 10 -117 335 -136 377 -8 17 -14 34 -14 37 0 4 -27 80
-60 170 l-61 163 -47 2 c-143 6 -224 5 -233 -3z m186 -231 c21 -60 38 -115 38
-122 0 -7 3 -13 7 -13 4 0 7 -6 7 -12 0 -7 2 -19 4 -27 3 -11 -16 -14 -99 -15
-57 -1 -106 2 -108 6 -2 4 9 42 24 85 16 43 29 80 30 83 0 3 5 17 10 31 6 14
16 44 23 67 7 24 15 39 19 35 4 -4 24 -57 45 -118z"/>
<path d="M5615 1762 l-30 -3 1 -207 c2 -282 4 -308 28 -376 43 -122 155 -182
336 -180 116 1 200 16 200 35 0 5 4 8 8 6 15 -4 78 45 100 80 44 66 54 138 55
394 2 205 0 240 -13 244 -14 4 -121 8 -161 6 -14 -1 -16 -30 -16 -248 0 -275
-5 -302 -62 -342 -17 -12 -31 -19 -31 -15 0 3 -6 2 -13 -4 -18 -15 -128 -7
-165 12 -18 9 -36 25 -39 34 -4 9 -11 20 -17 24 -10 6 -13 114 -16 510 0 26
-2 26 -67 30 -38 2 -81 2 -98 0z"/>
<path d="M6627 1764 c-1 -1 -20 -5 -41 -8 -21 -4 -49 -9 -61 -12 l-22 -5 0
-357 c-1 -196 3 -362 8 -368 11 -13 71 -18 234 -17 159 1 201 6 268 30 125 44
180 171 122 282 -14 28 -84 81 -107 81 -7 0 6 11 28 25 55 33 84 90 79 155
-11 142 -119 199 -376 197 -71 0 -131 -2 -132 -3z m255 -129 c49 -9 72 -36 72
-85 0 -74 -44 -97 -183 -96 l-85 1 1 80 c1 44 2 85 2 92 2 19 117 24 193 8z
m39 -324 c26 -8 41 -21 50 -44 33 -78 -18 -141 -116 -146 -16 -1 -47 -2 -67
-4 -21 -1 -38 0 -38 3 0 3 -14 5 -32 5 l-31 0 -2 90 c0 50 1 95 3 101 4 15
186 11 233 -5z"/>
</g>
</svg>
